# xmcd
#
# Track frame offsets:
#	150
#	14046
#	24511
#	37095
#	48870
#	61395
#	72882
#	86054
#	99860
#	112542
#	123193
#	133182
#	142810
#	156207
#	165415
#	177602
#	188020
#	197949
#	209961
#	221783
#	243688
#
# Disc length: 4440 seconds
#
# Revision: 0
# Processed by: cddbd v1.5.2PL0 Copyright (c) Steve Scherf et al.
# Submitted via: dBpowerAMP V4.0
#
DISCID=34115615
DTITLE=Al Caiola - 40 Exitos [CD2]
DYEAR=2007
DGENRE=Easy Listening
TTITLE0=Apache
TTITLE1=Bonanza
TTITLE2=I Can't Stop Loving You
TTITLE3=Moon River
TTITLE4=Midnight In Moscow
TTITLE5=Song Of India
TTITLE6=Brazil
TTITLE7=Historia De Un Amor
TTITLE8=Te Quiero Dijiste
TTITLE9=The World Is Waiting For The Sunrise
TTITLE10=Medley. Baby Elephant Walk and Java
TTITLE11=Theme From A Summer Place
TTITLE12=Roses Are Red
TTITLE13=Your Cheating Heart
TTITLE14=Swinging Safari
TTITLE15=Rambling Rose
TTITLE16=Do You Love Me
TTITLE17=Vaya Con Dios
TTITLE18=Mexico
TTITLE19=Two Guitars
TTITLE20=DATA
EXTD=
EXTT0=
EXTT1=
EXTT2=
EXTT3=
EXTT4=
EXTT5=
EXTT6=
EXTT7=
EXTT8=
EXTT9=
EXTT10=
EXTT11=
EXTT12=
EXTT13=
EXTT14=
EXTT15=
EXTT16=
EXTT17=
EXTT18=
EXTT19=
EXTT20=
PLAYORDER=
